<?xml version="1.0" encoding="UTF-8" standalone="no"?>
<svg
   xmlns:dc="http://purl.org/dc/elements/1.1/"
   xmlns:cc="http://creativecommons.org/ns#"
   xmlns:rdf="http://www.w3.org/1999/02/22-rdf-syntax-ns#"
   xmlns:svg="http://www.w3.org/2000/svg"
   xmlns="http://www.w3.org/2000/svg"
   viewBox="0 0 1500 1250"
   height="1250"
   width="1500"
   xml:space="preserve"
   version="1.1"
   id="svg2"><metadata
     id="metadata8"><rdf:RDF><cc:Work
         rdf:about=""><dc:format>image/svg+xml</dc:format><dc:type
           rdf:resource="http://purl.org/dc/dcmitype/StillImage" /><dc:title></dc:title></cc:Work></rdf:RDF></metadata><defs
     id="defs6"><clipPath
       id="clipPath16"
       clipPathUnits="userSpaceOnUse"><path
         id="path18"
         d="m 0,1000 1200,0 L 1200,0 0,0 0,1000 Z" /></clipPath></defs><g
     transform="matrix(1.25,0,0,-1.25,0,1250)"
     id="g10"><g
       transform="matrix(3.8124278,0,0,3.8124278,-1685.5633,-1411.6665)"
       id="g12"><g
         clip-path="url(#clipPath16)"
         id="g14"><g
           transform="translate(559.1366,474)"
           id="g20"><path
             id="path22"
             style="fill:#000000;fill-opacity:1;fill-rule:nonzero;stroke:none"
             d="M 0,0 40.052,-50.5 78.567,0 l 36.963,-50.5 65.454,0 c 6.286,0 9.982,7.062 6.401,12.228 L 94.09,96.274 c -4.153,5.801 -7.58,5.34 -12.438,0.116 L 39.854,49.74 -1.396,95.279 c -6.331,6.213 -11.719,7.283 -16.845,0.044 L -108.315,-38.85 c -3.337,-4.969 0.225,-11.65 6.211,-11.65 l 65.967,0 L 0,0 Z" /></g><g
           transform="translate(702.6667,501)"
           id="g24"><path
             id="path26"
             style="fill:#000000;fill-opacity:1;fill-rule:nonzero;stroke:none"
             d="m 0,0 -46.16,66.845 c 0,0 -3.84,6.402 -5.417,6.395 -1.398,-0.006 89.451,0.19 89.451,0.19 7.05,0.016 11.087,-8.029 6.862,-13.673 L 0,0 Z" /></g></g></g></g></svg>